<svg xmlns="http://www.w3.org/2000/svg" viewBox="0 -0.5 20 20" shape-rendering="crispEdges">
<metadata>Made with Pixels to Svg https://codepen.io/shshaw/pen/XbxvNj</metadata>
<path stroke="#ffffff" d="M2 1h2M6 1h3M11 1h3M16 1h2M1 2h1M4 2h2M9 2h2M14 2h2M18 2h1M1 3h1M3 3h1M6 3h3M11 3h3M16 3h1M18 3h1M2 4h1M17 4h1M2 5h1M17 5h1M1 6h1M3 6h1M16 6h1M18 6h1M1 7h1M3 7h1M16 7h1M18 7h1M1 8h1M3 8h1M16 8h1M18 8h1M2 9h1M17 9h1M2 10h1M17 10h1M1 11h1M3 11h1M16 11h1M18 11h1M1 12h1M3 12h1M16 12h1M18 12h1M1 13h1M3 13h1M16 13h1M18 13h1M2 14h1M17 14h1M2 15h1M17 15h1M1 16h1M3 16h1M6 16h3M11 16h3M16 16h1M18 16h1M1 17h1M4 17h2M9 17h2M14 17h2M18 17h1M2 18h2M6 18h3M11 18h3M16 18h2" />
<path stroke="#000000" d="M2 2h2M6 2h3M11 2h3M16 2h2M2 3h1M17 3h1M2 6h1M17 6h1M2 7h1M17 7h1M2 8h1M17 8h1M2 11h1M17 11h1M2 12h1M17 12h1M2 13h1M17 13h1M2 16h1M17 16h1M2 17h2M6 17h3M11 17h3M16 17h2" />
</svg>