<svg xmlns="http://www.w3.org/2000/svg" viewBox="0 -0.5 20 20" shape-rendering="crispEdges">
<path stroke="#ffffff" d="M8 1h3M7 2h1M11 2h1M6 3h1M12 3h1M6 4h1M13 4h1M6 5h1M14 5h1M3 6h4M15 6h1M2 7h1M16 7h1M1 8h1M17 8h1M1 9h1M18 9h1M1 10h1M18 10h1M1 11h1M17 11h1M2 12h1M16 12h1M3 13h4M15 13h1M6 14h1M14 14h1M6 15h1M13 15h1M6 16h1M12 16h1M7 17h1M11 17h1M8 18h3" />
<path stroke="#0449c9" d="M8 2h3M7 3h1M11 3h1M7 4h1M12 4h1M7 5h1M13 5h1M7 6h1M14 6h1M3 7h4M2 8h1M2 9h1M3 10h14M3 11h13M7 12h8M8 13h6M8 14h5M8 15h4M8 16h3" />
<path stroke="#4183fc" d="M8 3h3M8 4h4M8 5h5M8 6h6M7 7h8M3 8h13M3 9h14" />
<path stroke="#002764" d="M15 7h1M16 8h1M17 9h1M2 10h1M17 10h1M2 11h1M16 11h1M3 12h4M15 12h1M7 13h1M14 13h1M7 14h1M13 14h1M7 15h1M12 15h1M7 16h1M11 16h1M8 17h3" />
</svg>
