<svg xmlns="http://www.w3.org/2000/svg" viewBox="0 -0.5 20 20" shape-rendering="crispEdges">
<path stroke="#ffffff" d="M16 1h2M14 2h2M18 2h1M12 3h2M18 3h1M11 4h1M17 4h1M10 5h1M17 5h1M9 6h1M16 6h1M8 7h1M16 7h1M8 8h1M15 8h1M7 9h1M14 9h1M6 10h2M13 10h1M4 11h2M11 11h2M3 12h1M9 12h2M2 13h1M9 13h1M2 14h1M8 14h1M2 15h1M8 15h1M2 16h1M8 16h1M1 17h1M7 17h1M2 18h5" />
<path stroke="#575757" d="M16 2h2M14 3h2M12 4h2M11 5h1M15 5h1M10 6h1M14 6h1M9 7h1M13 7h1M9 8h1M12 8h1M8 9h4M9 10h2M4 13h2M8 13h1M4 14h2M4 15h2M4 16h1" />
<path stroke="#acacac" d="M16 3h1M14 4h2M12 5h3M11 6h3M10 7h3M10 8h2M6 11h1M8 11h1M7 12h2" />
<path stroke="#000000" d="M17 3h1M16 4h1M16 5h1M15 6h1M14 7h2M13 8h2M12 9h2M8 10h1M11 10h2M9 11h2M4 12h3M3 13h1M6 13h2M3 14h1M6 14h2M3 15h1M6 15h2M3 16h1M5 16h3M2 17h5" />
<path stroke="#ffffff" d="M7 11h1" />
</svg>
