<svg xmlns="http://www.w3.org/2000/svg" viewBox="0 -0.5 20 20" shape-rendering="crispEdges">
<path stroke="#ffffff" d="M8 3h4M6 4h2M12 4h2M5 5h1M14 5h1M4 6h1M15 6h1M3 7h1M16 7h1M2 8h1M17 8h1M1 9h1M18 9h1M1 10h1M18 10h1M2 11h1M17 11h1M3 12h1M16 12h1M4 13h1M15 13h1M5 14h1M14 14h1M6 15h2M12 15h2M8 16h4" />
<path stroke="#000000" d="M8 4h4M6 5h2M12 5h2M5 6h1M14 6h1M4 7h1M15 7h1M3 8h1M15 8h2M2 9h2M16 9h2M2 10h2M16 10h2M3 11h2M15 11h2M4 12h3M13 12h3M5 13h10M6 14h8M8 15h4" />
<path stroke="#acacac" d="M8 5h4M6 6h7M6 7h8M5 8h9M4 9h10M5 10h8M7 11h5" />
<path stroke="#575757" d="M13 6h1M5 7h1M14 7h1M4 8h1M14 8h1M14 9h2M4 10h1M13 10h3M5 11h2M12 11h3M7 12h6" />
</svg>
