<svg xmlns="http://www.w3.org/2000/svg" viewBox="0 -0.5 20 20" shape-rendering="crispEdges">
<path stroke="#ffffff" d="M9 2h2M8 3h1M11 3h1M7 4h2M11 4h2M6 5h1M13 5h1M6 6h1M13 6h1M7 7h2M11 7h2M8 8h1M11 8h1M6 9h12M5 10h1M18 10h1M4 11h1M17 11h1M3 12h1M16 12h2M2 13h1M18 13h1M1 14h1M17 14h1M2 15h2M16 15h1M2 16h1M15 16h1M1 17h1M14 17h1M2 18h12" />
<path stroke="#000000" d="M9 3h2M9 4h2M7 5h6M7 6h6M9 7h2M9 8h2M6 10h12M5 11h1M16 11h1M4 12h1M15 12h1M3 13h1M14 13h4M2 14h12M16 14h1M4 15h1M15 15h1M3 16h1M14 16h1M2 17h12" />
<path stroke="#ffffff" d="M6 11h3M14 11h2M5 12h5M12 12h3M4 13h10M4 16h10" />
<path stroke="#acacac" d="M9 11h5M10 12h2M5 15h8" />
<path stroke="#575757" d="M14 14h2M13 15h2" />
</svg>
