<svg xmlns="http://www.w3.org/2000/svg" viewBox="0 -0.5 20 20" shape-rendering="crispEdges">
<path stroke="#ffffff" d="M8 1h4M6 2h2M12 2h2M5 3h1M14 3h1M4 4h1M15 4h1M3 5h1M16 5h1M2 6h1M17 6h1M2 7h1M17 7h1M1 8h1M18 8h1M1 9h1M18 9h1M1 10h1M18 10h1M1 11h1M18 11h1M2 12h1M17 12h1M2 13h1M17 13h1M3 14h1M16 14h1M4 15h1M15 15h1M5 16h1M14 16h1M6 17h2M12 17h2M8 18h4" />
<path stroke="#acacac" d="M8 2h1M6 3h2M5 4h1M4 5h1M3 6h1M9 6h1M9 7h1M11 7h1M2 8h1M7 8h2M11 8h1M2 9h1M10 9h1M2 10h1M9 10h1M2 11h1M8 11h1M8 12h1M3 13h1M7 16h1M10 16h1" />
<path stroke="#575757" d="M9 2h3M8 3h2M13 3h1M10 4h1M14 4h1M7 5h2M11 5h1M15 5h1M6 6h1M11 6h1M16 6h1M6 7h1M17 8h1M17 9h1M17 10h1M17 11h1M13 12h1M8 13h1M13 13h1M16 13h1M4 14h1M8 14h1M11 14h2M15 14h1M5 15h1M9 15h1M14 15h1M6 16h1M11 16h3M8 17h4" />
<path stroke="#000000" d="M10 3h3M11 4h3M12 5h3M7 6h2M12 6h4M7 7h2M12 7h5M12 8h5M11 9h6M10 10h7M9 11h8M9 12h2M14 12h3M9 13h2M14 13h2M9 14h2M13 14h2M10 15h4" />
<path stroke="#ffffff" d="M6 4h4M5 5h2M9 5h2M4 6h2M10 6h1M3 7h3M10 7h1M3 8h4M9 8h2M3 9h7M3 10h6M3 11h5M3 12h5M11 12h2M4 13h4M11 13h2M5 14h3M6 15h3M8 16h2" />
</svg>
