<svg xmlns="http://www.w3.org/2000/svg" viewBox="0 -0.5 20 20" shape-rendering="crispEdges">
<path stroke="#ffffff" d="M3 1h14M2 2h1M17 2h1M1 3h1M18 3h1M1 4h1M18 4h1M1 5h1M18 5h1M1 6h1M18 6h1M1 7h1M18 7h1M1 8h1M18 8h1M1 9h1M18 9h1M1 10h1M18 10h1M1 11h1M18 11h1M1 12h1M18 12h1M1 13h1M18 13h1M1 14h1M18 14h1M1 15h1M18 15h1M1 16h1M18 16h1M2 17h1M17 17h1M3 18h14" />
<path stroke="#000000" d="M3 2h14M2 3h1M17 3h1M2 4h1M4 4h6M11 4h5M17 4h1M2 5h1M4 5h2M11 5h5M17 5h1M2 6h1M4 6h1M14 6h2M17 6h1M2 7h1M4 7h1M14 7h2M17 7h1M2 8h1M4 8h1M8 8h1M13 8h3M17 8h1M2 9h1M4 9h2M12 9h4M17 9h1M2 10h1M4 10h2M13 10h3M17 10h1M2 11h1M4 11h2M13 11h3M17 11h1M2 12h1M4 12h4M10 12h1M12 12h4M17 12h1M2 13h1M4 13h4M9 13h1M11 13h5M17 13h1M2 14h1M4 14h2M7 14h3M11 14h5M17 14h1M2 15h1M4 15h3M8 15h2M11 15h1M13 15h3M17 15h1M2 16h1M17 16h1M3 17h14" />
<path stroke="#575757" d="M3 3h14M3 4h1M3 5h1M3 6h1M11 6h1M3 7h1M7 7h2M10 7h1M3 8h1M7 8h1M10 8h1M3 9h1M9 9h3M3 10h1M10 10h3M3 11h1M10 11h2M3 12h1M11 12h1M3 13h1M10 13h1M3 14h1M10 14h1M3 15h1" />
<path stroke="#acacac" d="M10 4h1M16 4h1M9 5h2M16 5h1M6 6h3M10 6h1M12 6h1M16 6h1M6 7h1M16 7h1M6 8h1M11 8h2M16 8h1M16 9h1M8 10h1M16 10h1M7 11h3M12 11h1M16 11h1M9 12h1M16 12h1M16 13h1M6 14h1M16 14h1M7 15h1M10 15h1M12 15h1M16 15h1M3 16h14" />
<path stroke="#ffffff" d="M6 5h3M5 6h1M9 6h1M13 6h1M5 7h1M9 7h1M11 7h3M5 8h1M9 8h1M6 9h3M6 10h2M9 10h1M6 11h1M8 12h1M8 13h1" />
</svg>
