<svg xmlns="http://www.w3.org/2000/svg" viewBox="0 -0.5 20 20" shape-rendering="crispEdges">
<path stroke="#ffffff" d="M2 1h12M1 2h1M14 2h1M1 3h1M14 3h1M1 4h1M14 4h1M1 5h1M14 5h4M1 6h1M18 6h1M1 7h1M18 7h1M1 8h1M18 8h1M1 9h1M18 9h1M1 10h1M18 10h1M1 11h1M18 11h1M1 12h1M18 12h1M1 13h1M18 13h1M2 14h4M18 14h1M5 15h1M18 15h1M5 16h1M18 16h1M5 17h1M18 17h1M6 18h12" />
<path stroke="#000000" d="M2 2h12M2 3h12M2 4h12M2 5h12M2 6h12M2 7h12M2 8h12M2 9h12M2 10h12M2 11h12M2 12h12M2 13h12" />
<path stroke="#ffffff" d="M14 6h4M14 7h4M14 8h4M14 9h4M14 10h4M14 11h4M14 12h4M14 13h4M6 14h12M6 15h12M6 16h12M6 17h12" />
</svg>
