<svg xmlns="http://www.w3.org/2000/svg" viewBox="0 -0.5 20 20" shape-rendering="crispEdges">
<path stroke="#ffffff" d="M2 1h11M1 2h1M13 2h1M1 3h1M3 3h9M13 3h1M1 4h1M3 4h1M11 4h1M13 4h1M1 5h1M3 5h1M11 5h1M13 5h1M1 6h1M3 6h1M7 6h5M13 6h2M16 6h2M1 7h1M3 7h1M6 7h1M15 7h1M18 7h1M1 8h1M3 8h1M6 8h1M13 8h2M16 8h1M18 8h1M1 9h1M3 9h1M6 9h1M13 9h1M17 9h1M1 10h1M3 10h1M6 10h1M13 10h1M16 10h1M18 10h1M1 11h1M3 11h4M13 11h1M16 11h1M18 11h1M1 12h1M13 12h1M17 12h1M2 13h5M8 13h5M16 13h1M18 13h1M6 14h1M8 14h1M16 14h1M18 14h1M7 15h1M17 15h1M6 16h1M8 16h1M10 16h2M13 16h2M16 16h1M18 16h1M6 17h1M9 17h1M12 17h1M15 17h1M18 17h1M7 18h2M10 18h2M13 18h2M16 18h2" />
<path stroke="#000000" d="M2 2h11M2 3h1M12 3h1M2 4h1M12 4h1M2 5h1M12 5h1M2 6h1M12 6h1M2 7h1M7 7h8M16 7h2M2 8h1M7 8h6M17 8h1M2 9h1M7 9h6M2 10h1M7 10h6M17 10h1M2 11h1M7 11h6M17 11h1M2 12h11M7 13h1M17 13h1M7 14h1M17 14h1M7 16h1M17 16h1M7 17h2M10 17h2M13 17h2M16 17h2" />
</svg>
