<svg xmlns="http://www.w3.org/2000/svg" viewBox="0 -0.5 20 20" shape-rendering="crispEdges">
<path stroke="#ffffff" d="M2 1h16M1 2h1M18 2h1M2 3h1M5 3h12M18 3h1M3 4h2M7 4h2M16 4h1M18 4h1M5 5h2M9 5h2M16 5h1M18 5h1M7 6h2M11 6h1M16 6h1M18 6h1M7 7h1M10 7h1M16 7h1M18 7h1M5 8h2M8 8h2M16 8h1M18 8h1M3 9h2M7 9h1M15 9h1M17 9h1M2 10h1M5 10h2M15 10h1M17 10h1M1 11h1M3 11h2M15 11h1M17 11h1M2 12h1M4 12h1M15 12h1M17 12h1M3 13h1M5 13h1M15 13h1M17 13h1M4 14h1M6 14h1M14 14h2M17 14h1M4 15h1M6 15h1M10 15h4M17 15h1M5 16h1M7 16h3M14 16h3M6 17h1M10 17h4M7 18h3" />
<path stroke="#000000" d="M2 2h16M3 3h2M17 3h1M5 4h2M17 4h1M7 5h2M17 5h1M9 6h2M17 6h1M8 7h2M17 7h1M7 8h1M17 8h1M5 9h2M16 9h1M3 10h2M16 10h1M2 11h1M16 11h1M3 12h1M16 12h1M4 13h1M16 13h1M5 14h1M16 14h1M5 15h1M14 15h3M6 16h1M10 16h4M7 17h3" />
</svg>
