<svg xmlns="http://www.w3.org/2000/svg" viewBox="0 -0.5 20 20" shape-rendering="crispEdges">
<path stroke="#ffffff" d="M6 2h1M5 3h1M7 3h1M4 4h1M8 4h1M3 5h1M9 5h1M2 6h1M10 6h1M3 7h2M8 7h2M4 8h1M8 8h1M4 9h1M8 9h1M13 9h1M5 10h1M9 10h1M12 10h1M14 10h1M5 11h1M10 11h3M15 11h1M6 12h1M16 12h1M7 13h1M17 13h1M8 14h2M16 14h1M10 15h3M15 15h1M12 16h1M14 16h1M13 17h1" />
<path stroke="#000000" d="M6 3h1M5 4h3M4 5h5M3 6h7M5 7h3M5 8h3M5 9h3M6 10h3M13 10h1M6 11h4M13 11h2M7 12h9M8 13h9M10 14h6M13 15h2M13 16h1" />
</svg>
