<svg xmlns="http://www.w3.org/2000/svg" viewBox="0 -0.5 20 20" shape-rendering="crispEdges">
<path stroke="#ffffff" d="M15 1h3M10 2h2M14 2h1M18 2h1M9 3h1M12 3h2M18 3h1M8 4h1M18 4h1M9 5h1M17 5h1M9 6h1M16 6h1M8 7h1M16 7h1M7 8h1M17 8h1M6 9h1M17 9h1M5 10h1M13 10h2M16 10h1M4 11h1M12 11h1M15 11h1M4 12h1M11 12h1M3 13h1M10 13h1M3 14h1M9 14h1M2 15h1M7 15h2M2 16h1M5 16h2M2 17h1M5 17h1M3 18h2" />
<path stroke="#000000" d="M15 2h3M10 3h2M14 3h4M9 4h9M10 5h7M12 6h4M13 7h3M14 8h3M13 9h4M12 10h1M15 10h1M11 11h1M5 12h1M7 12h4M4 13h1M9 13h1M4 14h1M7 14h2M3 15h4M3 16h2M3 17h2" />
<path stroke="#575757" d="M10 6h2M9 7h1M12 7h1M8 8h1M13 8h1M7 9h1M6 10h1M5 11h1M5 13h4M5 14h2" />
<path stroke="#acacac" d="M10 7h2M9 8h1M11 8h2M8 9h1M10 9h3M7 10h1M9 10h3M6 11h1M8 11h3M6 12h1" />
<path stroke="#ffffff" d="M10 8h1M9 9h1M8 10h1M7 11h1" />
</svg>
