<svg xmlns="http://www.w3.org/2000/svg" viewBox="0 -0.5 20 20" shape-rendering="crispEdges">
<path stroke="#ffffff" d="M15 1h2M14 2h1M17 2h1M13 3h1M18 3h1M12 4h1M18 4h1M11 5h1M17 5h1M10 6h1M16 6h1M9 7h1M15 7h1M8 8h1M14 8h1M7 9h1M13 9h1M6 10h1M12 10h1M5 11h1M11 11h1M4 12h1M10 12h1M3 13h1M9 13h1M3 14h1M8 14h1M3 15h1M8 15h1M2 16h1M8 16h1M1 17h1M7 17h1M2 18h5" />
<path stroke="#575757" d="M15 2h2M14 3h1M13 4h1M16 4h1M12 5h1M15 5h1M11 6h1M14 6h1M10 7h1M13 7h1M9 8h1M12 8h1M8 9h1M11 9h1M7 10h1M10 10h1M8 11h2M5 13h1M5 14h1M5 15h1M4 16h1" />
<path stroke="#acacac" d="M15 3h2M14 4h2M13 5h2M12 6h2M11 7h2M10 8h2M9 9h2M8 10h2M6 11h1M7 12h2" />
<path stroke="#000000" d="M17 3h1M17 4h1M16 5h1M15 6h1M14 7h1M13 8h1M12 9h1M11 10h1M10 11h1M5 12h2M9 12h1M4 13h1M6 13h3M4 14h1M6 14h2M4 15h1M6 15h2M3 16h1M5 16h3M2 17h5" />
<path stroke="#ffffff" d="M7 11h1" />
</svg>
