<svg xmlns="http://www.w3.org/2000/svg" viewBox="0 -0.5 20 20" shape-rendering="crispEdges">
<path stroke="#ffffff" d="M8 1h1M7 2h1M9 2h2M6 3h1M11 3h1M5 4h1M12 4h1M4 5h1M13 5h1M3 6h1M14 6h1M2 7h1M14 7h1M1 8h1M15 8h2M2 9h1M17 9h1M2 10h1M18 10h1M3 11h1M18 11h1M4 12h1M18 12h1M5 13h1M17 13h1M6 14h2M16 14h1M8 15h1M15 15h1M8 16h1M14 16h1M9 17h1M13 17h1M10 18h3" />
<path stroke="#575757" d="M8 2h1M7 3h1M6 4h1M5 5h1M10 5h2M4 6h1M9 6h1M11 6h2M3 7h1M8 7h1M12 7h1M2 8h1M7 8h1M11 8h2M6 9h1M10 9h2M13 9h2M5 10h1M8 10h3M12 10h1M14 10h1M6 11h1M8 11h2M11 11h3M16 11h1M7 12h2M10 12h7M9 13h1M11 13h2M15 13h1M10 14h1M12 14h1M14 14h1M12 15h2M12 16h1" />
<path stroke="#acacac" d="M8 3h1M8 4h1M10 4h1M6 5h1M9 5h1M6 6h1M8 6h1M7 7h1M11 7h1M3 8h1M6 8h1M10 8h1M5 9h1M9 9h1M4 10h1M15 10h2M5 11h1M6 12h1M9 14h1M10 15h1M10 16h2" />
<path stroke="#000000" d="M9 3h2M9 4h1M11 4h1M8 5h1M12 5h1M7 6h1M10 6h1M13 6h1M6 7h1M9 7h2M13 7h1M5 8h1M8 8h2M13 8h2M3 9h2M7 9h2M12 9h1M15 9h2M3 10h1M6 10h2M11 10h1M13 10h1M17 10h1M4 11h1M7 11h1M10 11h1M14 11h2M17 11h1M5 12h1M9 12h1M17 12h1M6 13h3M10 13h1M13 13h2M16 13h1M8 14h1M11 14h1M13 14h1M15 14h1M9 15h1M11 15h1M14 15h1M9 16h1M13 16h1M10 17h3" />
<path stroke="#ffffff" d="M7 4h1M7 5h1M5 6h1M4 7h2M4 8h1" />
</svg>
