<svg xmlns="http://www.w3.org/2000/svg" viewBox="0 -0.5 20 20" shape-rendering="crispEdges">
<path stroke="#ffffff" d="M17 1h1M16 2h1M18 2h1M16 3h1M18 3h1M16 4h1M18 4h1M6 5h3M15 5h1M17 5h1M5 6h1M9 6h1M15 6h1M17 6h1M4 7h1M6 7h3M10 7h1M15 7h1M17 7h1M3 8h1M5 8h1M9 8h1M11 8h1M14 8h1M16 8h1M3 9h1M5 9h1M9 9h1M11 9h1M14 9h1M16 9h1M2 10h1M4 10h1M10 10h1M12 10h2M15 10h1M2 11h1M4 11h1M11 11h1M14 11h1M2 12h1M4 12h1M12 12h2M1 13h1M3 13h1M1 14h1M3 14h1M1 15h1M3 15h1M1 16h1M3 16h1M1 17h1M3 17h1M2 18h1" />
<path stroke="#000000" d="M17 2h1M17 3h1M17 4h1M16 5h1M6 6h3M16 6h1M5 7h1M9 7h1M16 7h1M4 8h1M10 8h1M15 8h1M4 9h1M10 9h1M15 9h1M3 10h1M11 10h1M14 10h1M3 11h1M12 11h2M3 12h1M2 13h1M2 14h1M2 15h1M2 16h1M2 17h1" />
</svg>
