<svg xmlns="http://www.w3.org/2000/svg" viewBox="0 -0.5 20 20" shape-rendering="crispEdges">
<path stroke="#ffffff" d="M2 1h16M1 2h1M18 2h1M1 3h1M18 3h1M1 4h1M18 4h1M1 5h1M18 5h1M1 6h1M18 6h1M1 7h1M18 7h1M1 8h1M18 8h1M1 9h1M18 9h1M1 10h1M18 10h1M1 11h1M18 11h1M1 12h1M18 12h1M1 13h1M18 13h1M1 14h1M18 14h1M1 15h1M18 15h1M1 16h1M18 16h1M1 17h1M18 17h1M2 18h16" />
<path stroke="#000000" d="M2 2h16M2 3h16M2 4h2M16 4h2M2 5h2M16 5h2M2 6h2M16 6h2M2 7h2M16 7h2M2 8h2M16 8h2M2 9h2M16 9h2M2 10h2M16 10h2M2 11h2M16 11h2M2 12h2M16 12h2M2 13h2M16 13h2M2 14h2M16 14h2M2 15h2M16 15h2M2 16h16M2 17h16" />
<path stroke="#ffffff" d="M4 4h1M7 4h2M11 4h2M15 4h1M6 5h2M10 5h2M14 5h2M5 6h2M9 6h2M13 6h2M4 7h2M8 7h2M12 7h2M4 8h1M7 8h2M11 8h2M15 8h1M6 9h2M10 9h2M14 9h2M5 10h2M9 10h2M13 10h2M4 11h2M8 11h2M12 11h2M4 12h1M7 12h2M11 12h2M15 12h1M6 13h2M10 13h2M14 13h2M5 14h2M9 14h2M13 14h2M4 15h2M8 15h2M12 15h2" />
<path stroke="#acacac" d="M5 4h2M9 4h2M13 4h2M4 5h2M8 5h2M12 5h2M4 6h1M7 6h2M11 6h2M15 6h1M6 7h2M10 7h2M14 7h2M5 8h2M9 8h2M13 8h2M4 9h2M8 9h2M12 9h2M4 10h1M7 10h2M11 10h2M15 10h1M6 11h2M10 11h2M14 11h2M5 12h2M9 12h2M13 12h2M4 13h2M8 13h2M12 13h2M4 14h1M7 14h2M11 14h2M15 14h1M6 15h2M10 15h2M14 15h2" />
</svg>
