<svg xmlns="http://www.w3.org/2000/svg" viewBox="0 -0.5 20 20" shape-rendering="crispEdges">
<path stroke="#ffffff" d="M8 1h4M7 2h1M12 2h1M7 3h1M12 3h1M3 4h4M13 4h4M2 5h1M17 5h1M1 6h1M18 6h1M1 7h1M18 7h1M2 8h1M9 8h2M17 8h1M3 9h1M8 9h1M11 9h1M16 9h1M3 10h1M8 10h1M11 10h1M16 10h1M2 11h1M9 11h2M17 11h1M1 12h1M18 12h1M1 13h1M18 13h1M2 14h1M17 14h1M3 15h4M13 15h4M7 16h1M12 16h1M7 17h1M12 17h1M8 18h4" />
<path stroke="#ffffff" d="M8 2h2M9 4h2M3 5h1M16 5h1M2 6h1M6 6h1M5 7h1M3 11h1M11 11h1M2 12h1" />
<path stroke="#acacac" d="M10 2h1M8 3h1M7 4h2M11 4h1M4 5h4M14 5h2M2 7h1M3 8h2M11 8h1M4 9h1M12 9h1M4 10h1M12 10h1M4 11h1M5 12h1M9 12h2M2 13h1" />
<path stroke="#575757" d="M11 2h1M9 3h3M12 4h1M8 5h6M3 6h3M7 6h10M3 7h2M6 7h3M11 7h3M15 7h2M5 8h3M12 8h3M5 9h2M13 9h2M5 10h2M13 10h2M5 11h3M12 11h3M3 12h2M6 12h3M11 12h3M3 13h10M7 14h5" />
<path stroke="#000000" d="M17 6h1M9 7h2M14 7h1M17 7h1M8 8h1M15 8h2M7 9h1M15 9h1M7 10h1M15 10h1M8 11h1M15 11h2M14 12h4M13 13h5M3 14h4M12 14h5M7 15h6M8 16h4M8 17h4" />
</svg>
