<svg xmlns="http://www.w3.org/2000/svg" viewBox="0 -0.5 20 20" shape-rendering="crispEdges">
<metadata>Made with Pixels to Svg https://codepen.io/shshaw/pen/XbxvNj</metadata>
<path stroke="#838383" d="M6 1h1M3 2h1M5 2h1M7 2h2M2 3h1M4 3h4M9 3h1M3 4h1M8 4h1M2 5h2M8 5h2M1 6h1M3 6h1M8 6h1M10 6h1M2 7h2M8 7h2M2 8h1M4 8h4M9 8h2M3 9h1M5 9h1M7 9h2M11 9h1M6 10h1M8 10h1M12 10h1M9 11h1M13 11h1M10 12h1M14 12h1M11 13h1M15 13h1M12 14h1M16 14h1M13 15h1M17 15h1M14 16h1M18 16h1M15 17h1M18 17h1M16 18h2" />
<path stroke="#acacac" d="M6 2h1M3 3h1M8 3h1M4 4h4M4 5h1M7 5h1M2 6h1M4 6h1M7 6h1M9 6h1M4 7h4M3 8h1M8 8h1M6 9h1M11 11h1M12 12h1M14 14h1" />
<path stroke="#ffffff" d="M5 5h1M5 6h2" />
<path stroke="#fffffd" d="M6 5h1M10 10h1" />
<path stroke="#575757" d="M9 9h2M9 10h1M10 11h1M11 12h1M13 13h1M15 15h1" />
<path stroke="#000000" d="M11 10h1M12 11h1M13 12h1M12 13h1M14 13h1M13 14h1M15 14h1M14 15h1M16 15h1M15 16h3M16 17h2" />
</svg>