<svg xmlns="http://www.w3.org/2000/svg" viewBox="0 -0.5 20 20" shape-rendering="crispEdges">
<path stroke="#ffffff" d="M9 1h2M8 2h1M11 2h3M5 3h3M14 3h1M4 4h1M7 4h1M15 4h2M3 5h1M17 5h1M3 6h1M18 6h1M4 7h1M18 7h1M4 8h1M18 8h1M4 9h2M18 9h1M3 10h1M17 10h1M2 11h1M17 11h1M2 12h1M17 12h1M3 13h1M16 13h1M4 14h1M16 14h1M5 15h1M16 15h1M6 16h1M15 16h1M7 17h1M14 17h1M8 18h6" />
<path stroke="#575757" d="M9 2h2M8 3h1M12 3h2M5 4h2M8 4h1M4 5h1M16 5h1M4 6h1M7 6h1M11 6h1M15 6h1M5 7h1M11 7h1M14 7h2M5 8h1M8 8h1M11 8h1M14 8h1M6 9h1M14 9h1M16 9h1M4 10h2M3 11h1M6 11h2M13 11h1M3 12h1M13 12h1M15 12h1M14 15h1M13 16h1" />
<path stroke="#ffffff" d="M9 3h2M9 4h1M12 4h2M5 5h2M9 5h1M12 5h1M5 6h2M9 6h1M12 6h1M6 7h1M9 7h1M12 7h1M6 8h2M9 8h1M12 8h1M7 9h1M9 9h1M12 9h1M7 10h4M12 10h1M4 11h2M8 11h1M10 11h1M12 11h1M4 12h3M8 12h1M10 12h1M12 12h1M6 13h7M7 14h6M8 15h4" />
<path stroke="#000000" d="M11 3h1M11 4h1M14 4h1M7 5h2M11 5h1M14 5h2M8 6h1M14 6h1M17 6h1M8 7h1M17 7h1M17 8h1M17 9h1M6 10h1M16 10h1M16 11h1M16 12h1M4 13h1M15 13h1M5 14h1M15 14h1M6 15h1M15 15h1M7 16h1M14 16h1M8 17h6" />
<path stroke="#acacac" d="M10 4h1M10 5h1M13 5h1M10 6h1M13 6h1M16 6h1M7 7h1M10 7h1M13 7h1M16 7h1M10 8h1M13 8h1M15 8h2M8 9h1M10 9h2M13 9h1M15 9h1M11 10h1M13 10h3M9 11h1M11 11h1M14 11h2M7 12h1M9 12h1M11 12h1M14 12h1M5 13h1M13 13h2M6 14h1M13 14h2M7 15h1M12 15h2M8 16h5" />
</svg>
