<svg xmlns="http://www.w3.org/2000/svg" viewBox="0 -0.5 20 20" shape-rendering="crispEdges">
<path stroke="#ffffff" d="M17 1h1M16 2h1M18 2h1M15 3h1M17 3h1M14 4h1M16 4h1M13 5h1M15 5h1M12 6h1M14 6h1M11 7h1M13 7h1M10 8h1M12 8h1M9 9h1M11 9h1M8 10h1M10 10h1M7 11h1M9 11h1M6 12h1M8 12h1M5 13h1M7 13h1M4 14h1M6 14h1M3 15h1M5 15h1M2 16h1M4 16h1M1 17h1M3 17h1M2 18h1" />
<path stroke="#000000" d="M17 2h1M16 3h1M15 4h1M14 5h1M13 6h1M12 7h1M11 8h1M10 9h1M9 10h1M8 11h1M7 12h1M6 13h1M5 14h1M4 15h1M3 16h1M2 17h1" />
</svg>
