<svg xmlns="http://www.w3.org/2000/svg" viewBox="0 -0.5 20 20" shape-rendering="crispEdges">
<path stroke="#ffffff" d="M7 1h6M6 2h1M13 2h1M5 3h1M14 3h1M5 4h1M14 4h1M3 5h2M6 5h1M13 5h1M15 5h2M2 6h1M5 6h1M7 6h1M12 6h1M14 6h1M17 6h1M1 7h1M6 7h1M8 7h1M11 7h1M13 7h1M18 7h1M1 8h1M7 8h1M9 8h2M12 8h1M18 8h1M1 9h1M8 9h1M11 9h1M18 9h1M1 10h1M8 10h1M11 10h1M18 10h1M1 11h1M7 11h1M9 11h2M12 11h1M18 11h1M1 12h1M6 12h1M8 12h1M11 12h1M13 12h1M18 12h1M2 13h1M5 13h1M7 13h1M12 13h1M14 13h1M17 13h1M3 14h2M6 14h1M13 14h1M15 14h2M5 15h1M14 15h1M5 16h1M14 16h1M6 17h1M13 17h1M7 18h6" />
<path stroke="#44891a" d="M7 2h5M6 3h1M10 3h3M6 4h1M10 4h3M10 5h2M3 6h2M10 6h1M15 6h2M2 7h1M5 7h1M14 7h1M17 7h1M2 8h1M6 8h1M13 8h1M17 8h1M2 9h1M12 9h1M2 10h5M13 10h4M3 11h3M14 11h3M3 12h2M9 12h1M15 12h2M8 13h1M10 13h1M7 14h1M10 14h2M6 15h1M10 15h3M6 16h1M10 16h3M7 17h2" />
<path stroke="#0c580a" d="M12 2h1M13 3h1M13 4h1M7 5h1M12 5h1M8 6h1M11 6h1M9 7h2M7 9h1M17 9h1M7 10h1M12 10h1M17 10h1M2 11h1M6 11h1M13 11h1M17 11h1M2 12h1M5 12h1M10 12h1M14 12h1M17 12h1M3 13h2M11 13h1M15 13h2M12 14h1M13 15h1M13 16h1M9 17h4" />
<path stroke="#a3ce27" d="M7 3h3M7 4h3M8 5h2M9 6h1M3 7h2M15 7h2M3 8h3M14 8h3M3 9h4M13 9h4M9 13h1M8 14h2M7 15h3M7 16h3" />
</svg>
