<svg xmlns="http://www.w3.org/2000/svg" viewBox="0 -0.5 20 20" shape-rendering="crispEdges">
<path stroke="#ffffff" d="M2 1h2M1 2h1M4 2h1M1 3h1M5 3h1M1 4h1M6 4h1M2 5h1M7 5h1M2 6h1M8 6h1M3 7h1M9 7h2M3 8h1M11 8h1M4 9h1M12 9h1M4 10h1M13 10h2M5 11h6M15 11h1M11 12h1M16 12h1M11 13h1M17 13h1M11 14h1M18 14h1M12 15h1M18 15h1M12 16h1M18 16h1M13 17h1M17 17h1M14 18h3" />
<path stroke="#575757" d="M2 2h2M2 3h1M2 4h1M3 5h1M3 6h1M4 7h1M4 8h1M7 8h1M5 9h2M5 10h1M10 10h1M11 11h2M12 12h1M14 12h1M13 13h1M15 13h1M14 15h1M16 15h1M15 16h1" />
<path stroke="#ffffff" d="M3 3h1M3 4h2M5 5h1M8 8h1M7 9h3" />
<path stroke="#000000" d="M4 3h1M5 4h1M6 5h1M7 6h1M8 7h1M9 8h2M11 9h1M6 10h4M12 10h1M13 11h2M15 12h1M12 13h1M16 13h1M12 14h2M16 14h2M13 15h1M17 15h1M13 16h2M16 16h2M14 17h3" />
<path stroke="#acacac" d="M4 5h1M4 6h3M5 7h3M5 8h2M10 9h1M11 10h1M13 12h1M14 13h1M14 14h2M15 15h1" />
</svg>
