<svg xmlns="http://www.w3.org/2000/svg" viewBox="0 -0.5 20 20" shape-rendering="crispEdges">
<path stroke="#ffffff" d="M9 1h1M8 2h1M10 2h1M8 3h1M10 3h1M8 4h1M11 4h1M7 5h1M11 5h1M7 6h1M11 6h1M7 7h1M12 7h1M6 8h1M12 8h1M6 9h1M13 9h1M5 10h1M14 10h1M4 11h1M15 11h1M3 12h1M16 12h1M3 13h1M16 13h1M3 14h1M16 14h1M3 15h1M16 15h1M4 16h1M15 16h1M5 17h2M13 17h2M7 18h6" />
<path stroke="#000000" d="M9 2h1M9 3h1M9 4h2M8 5h3M8 6h3M8 7h4M7 8h2M10 8h2M7 9h2M10 9h3M6 10h2M10 10h4M5 11h2M9 11h6M4 12h2M9 12h5M15 12h1M4 13h2M8 13h6M15 13h1M4 14h9M15 14h1M4 15h7M15 15h1M5 16h2M13 16h2M7 17h6" />
<path stroke="#ffffff" d="M9 8h1M9 9h1M8 10h2M7 11h2M6 12h3M6 13h2" />
<path stroke="#575757" d="M14 12h1M14 13h1M13 14h2M11 15h4M7 16h6" />
</svg>
