<svg xmlns="http://www.w3.org/2000/svg" viewBox="0 -0.5 20 20" shape-rendering="crispEdges">
<path stroke="#ffffff" d="M15 1h2M14 2h1M17 2h1M10 3h2M14 3h1M18 3h1M9 4h1M12 4h2M18 4h1M8 5h1M10 5h2M16 5h2M8 6h1M10 6h1M15 6h1M9 7h1M15 7h1M8 8h1M14 8h1M16 8h1M7 9h1M13 9h2M16 9h1M6 10h1M12 10h1M15 10h1M5 11h1M11 11h1M13 11h2M4 12h1M10 12h1M4 13h1M9 13h1M4 14h1M8 14h1M3 15h1M5 15h3M2 16h1M4 16h1M1 17h1M3 17h1M2 18h1" />
<path stroke="#000000" d="M15 2h2M15 3h1M17 3h1M10 4h2M14 4h4M9 5h1M12 5h2M15 5h1M9 6h1M11 6h1M14 6h1M10 7h1M14 7h1M9 8h1M13 8h1M15 8h1M8 9h1M10 9h1M12 9h1M15 9h1M7 10h1M11 10h1M13 10h2M6 11h1M10 11h1M5 12h1M9 12h1M5 13h1M8 13h1M5 14h3M4 15h1M3 16h1M2 17h1" />
<path stroke="#acacac" d="M16 3h1M14 5h1M13 6h1M12 7h1M11 8h1M7 11h1" />
<path stroke="#ffffff" d="M12 6h1M11 7h1M10 8h1M9 9h1M8 10h1" />
<path stroke="#575757" d="M13 7h1M12 8h1M11 9h1M9 10h2M8 11h2M6 12h3M6 13h2" />
</svg>
