<svg xmlns="http://www.w3.org/2000/svg" viewBox="0 -0.5 20 20" shape-rendering="crispEdges">
<path stroke="#ffffff" d="M9 1h2M8 2h1M11 2h1M6 3h2M9 3h2M12 3h2M4 4h2M14 4h2M3 5h1M16 5h1M2 6h1M17 6h1M2 7h1M17 7h1M2 8h1M17 8h1M3 9h1M16 9h1M3 10h1M16 10h1M3 11h1M16 11h1M3 12h1M16 12h1M3 13h1M16 13h1M3 14h1M16 14h1M3 15h1M16 15h1M3 16h1M16 16h1M4 17h1M15 17h1M5 18h10" />
<path stroke="#575757" d="M9 2h2M8 3h1M6 4h8M4 5h2M13 5h3M3 6h1M10 6h5M3 7h1M12 7h4M3 8h1M8 9h1M11 9h1M4 10h1M6 10h1M9 10h3M14 10h1M4 11h1M6 11h1M9 11h2M14 11h1M4 12h1M6 12h1M9 12h2M14 12h1M4 13h1M6 13h1M9 13h2M14 13h1M4 14h1M6 14h1M9 14h2M14 14h1M4 15h1M9 15h1M13 15h2M4 16h1M11 16h4M5 17h1" />
<path stroke="#000000" d="M11 3h1M15 6h2M16 7h1M4 8h13M4 9h1M6 9h2M9 9h2M12 9h4M12 10h2M15 10h1M12 11h2M15 11h1M12 12h2M15 12h1M12 13h2M15 13h1M12 14h2M15 14h1M12 15h1M15 15h1M15 16h1M6 17h9" />
<path stroke="#acacac" d="M6 5h1M8 5h5M4 6h2M7 6h3M4 7h2M8 7h4M5 9h1M5 10h1M8 10h1M5 11h1M8 11h1M11 11h1M5 12h1M8 12h1M11 12h1M5 13h1M8 13h1M11 13h1M5 14h1M8 14h1M11 14h1M5 15h1M8 15h1M10 15h2M5 16h6" />
<path stroke="#ffffff" d="M7 5h1M6 6h1M6 7h2M7 10h1M7 11h1M7 12h1M7 13h1M7 14h1M6 15h2" />
</svg>
