<svg xmlns="http://www.w3.org/2000/svg" viewBox="0 -0.5 20 20" shape-rendering="crispEdges">
<path stroke="#ffffff" d="M9 3h8M8 4h1M17 4h1M7 5h1M18 5h1M6 6h1M18 6h1M5 7h1M18 7h1M4 8h1M18 8h1M3 9h1M18 9h1M2 10h1M17 10h1M1 11h1M16 11h1M1 12h1M15 12h1M1 13h1M14 13h1M1 14h1M13 14h1M2 15h1M12 15h1M3 16h9" />
<path stroke="#575757" d="M9 4h8M8 5h1M7 6h1M16 6h1M6 7h1M15 7h2M5 8h1M14 8h3M4 9h1M13 9h4M3 10h1M12 10h4M11 11h4M11 12h3M11 13h2M11 14h1M3 15h8" />
<path stroke="#acacac" d="M9 5h8M8 6h8M7 7h8M6 8h8M5 9h8M4 10h8M2 11h1M2 12h1M2 13h1M2 14h1" />
<path stroke="#000000" d="M17 5h1M17 6h1M17 7h1M17 8h1M17 9h1M16 10h1M15 11h1M14 12h1M13 13h1M12 14h1M11 15h1" />
<path stroke="#ffffff" d="M3 11h8M3 12h8M3 13h8M3 14h8" />
</svg>
