<svg xmlns="http://www.w3.org/2000/svg" viewBox="0 -0.5 20 20" shape-rendering="crispEdges">
<path stroke="#ffffff" d="M12 1h4M10 2h2M16 2h1M8 3h2M12 3h4M17 3h1M7 4h1M10 4h2M16 4h1M18 4h1M6 5h1M8 5h2M16 5h1M18 5h1M5 6h1M7 6h1M16 6h1M18 6h1M4 7h1M6 7h1M16 7h1M18 7h1M3 8h1M5 8h1M15 8h1M17 8h1M3 9h1M5 9h1M15 9h1M17 9h1M2 10h1M4 10h1M14 10h1M16 10h1M2 11h1M4 11h1M14 11h1M16 11h1M1 12h1M3 12h1M13 12h1M15 12h1M1 13h1M3 13h1M12 13h1M14 13h1M1 14h1M3 14h1M10 14h2M13 14h1M1 15h1M3 15h1M8 15h2M12 15h1M2 16h1M4 16h4M10 16h2M3 17h1M8 17h2M4 18h4" />
<path stroke="#000000" d="M12 2h4M10 3h2M16 3h1M8 4h2M17 4h1M7 5h1M17 5h1M6 6h1M17 6h1M5 7h1M17 7h1M4 8h1M16 8h1M4 9h1M16 9h1M3 10h1M15 10h1M3 11h1M15 11h1M2 12h1M14 12h1M2 13h1M13 13h1M2 14h1M12 14h1M2 15h1M10 15h2M3 16h1M8 16h2M4 17h4" />
</svg>
