<svg xmlns="http://www.w3.org/2000/svg" viewBox="0 -0.5 20 20" shape-rendering="crispEdges">
<path stroke="#ffffff" d="M9 1h2M8 2h1M11 2h1M7 3h1M12 3h1M6 4h1M13 4h1M7 5h2M11 5h2M4 6h1M8 6h1M11 6h1M15 6h1M3 7h1M5 7h1M8 7h1M11 7h1M14 7h1M16 7h1M2 8h1M5 8h4M11 8h4M17 8h1M1 9h1M18 9h1M1 10h1M18 10h1M2 11h1M5 11h4M11 11h4M17 11h1M3 12h1M5 12h1M8 12h1M11 12h1M14 12h1M16 12h1M4 13h1M8 13h1M11 13h1M15 13h1M7 14h2M11 14h2M6 15h1M13 15h1M7 16h1M12 16h1M8 17h1M11 17h1M9 18h2" />
<path stroke="#000000" d="M9 2h2M8 3h4M7 4h6M9 5h2M9 6h2M4 7h1M9 7h2M15 7h1M3 8h2M9 8h2M15 8h2M2 9h16M2 10h16M3 11h2M9 11h2M15 11h2M4 12h1M9 12h2M15 12h1M9 13h2M9 14h2M7 15h6M8 16h4M9 17h2" />
</svg>
