<svg xmlns="http://www.w3.org/2000/svg" viewBox="0 -0.5 20 20" shape-rendering="crispEdges">
<path stroke="#ffffff" d="M9 1h3M8 2h1M12 2h1M7 3h1M13 3h1M6 4h1M13 4h1M5 5h1M13 5h1M4 6h1M13 6h4M3 7h1M17 7h1M2 8h1M18 8h1M1 9h1M18 9h1M1 10h1M18 10h1M2 11h1M18 11h1M3 12h1M17 12h1M4 13h1M13 13h4M5 14h1M13 14h1M6 15h1M13 15h1M7 16h1M13 16h1M8 17h1M12 17h1M9 18h3" />
<path stroke="#b00707" d="M9 2h3M8 3h1M12 3h1M7 4h1M6 5h1M5 6h1M4 7h1M3 8h1M2 9h1M2 10h15M4 11h13M5 12h8M6 13h6M7 14h5M8 15h4M9 16h3" />
<path stroke="#ef3f39" d="M9 3h3M8 4h4M7 5h5M6 6h6M5 7h8M4 8h13M3 9h14" />
<path stroke="#640000" d="M12 4h1M12 5h1M12 6h1M13 7h4M17 8h1M17 9h1M17 10h1M3 11h1M17 11h1M4 12h1M13 12h4M5 13h1M12 13h1M6 14h1M12 14h1M7 15h1M12 15h1M8 16h1M12 16h1M9 17h3" />
</svg>
