<svg xmlns="http://www.w3.org/2000/svg" viewBox="0 -0.5 20 20" shape-rendering="crispEdges">
<path stroke="#ffffff" d="M9 1h1M13 1h1M8 2h1M10 2h3M14 2h1M6 3h3M10 3h1M13 3h1M5 4h1M11 4h2M4 5h1M6 5h2M9 5h6M4 6h1M6 6h2M9 6h3M15 6h1M3 7h1M5 7h4M16 7h1M2 8h1M4 8h3M16 8h1M1 9h1M3 9h2M13 9h2M17 9h1M1 10h1M3 10h1M12 10h4M17 10h1M1 11h1M7 11h3M18 11h1M1 12h1M6 12h1M8 12h1M18 12h1M1 13h1M5 13h3M12 13h2M18 13h1M1 14h1M11 14h1M14 14h1M17 14h1M2 15h1M11 15h1M15 15h2M3 16h1M10 16h1M4 17h1M8 17h2M5 18h3" />
<path stroke="#000000" d="M9 2h1M13 2h1M9 3h1M11 3h2M6 4h5M5 5h1M8 5h1M5 6h1M8 6h1M12 6h3M4 7h1M9 7h3M15 7h1M3 8h1M7 8h3M13 8h3M2 9h1M5 9h2M12 9h1M15 9h2M2 10h1M4 10h1M7 10h3M11 10h1M16 10h1M2 11h2M6 11h1M10 11h1M12 11h4M17 11h1M2 12h2M5 12h1M9 12h1M12 12h2M17 12h1M2 13h1M4 13h1M8 13h1M11 13h1M14 13h1M17 13h1M2 14h1M5 14h3M10 14h1M15 14h2M3 15h1M10 15h1M4 16h1M8 16h2M5 17h3" />
<path stroke="#acacac" d="M12 7h1M12 8h1M7 9h1M10 10h1M5 11h1M16 11h1M11 12h1M16 12h1M9 13h1M9 14h1M6 15h1M9 15h1M7 16h1" />
<path stroke="#575757" d="M13 7h2M10 8h2M8 9h4M4 11h1M11 11h1M4 12h1M10 12h1M14 12h2M3 13h1M10 13h1M15 13h2M3 14h2M4 15h2M5 16h2" />
<path stroke="#ffffff" d="M5 10h2M8 14h1M7 15h2" />
</svg>
