<svg xmlns="http://www.w3.org/2000/svg" viewBox="0 -0.5 20 20" shape-rendering="crispEdges">
<path stroke="#ffffff" d="M15 1h2M14 2h1M17 2h1M11 3h3M18 3h1M10 4h1M18 4h1M9 5h1M17 5h1M8 6h1M16 6h1M8 7h1M16 7h1M7 8h1M15 8h1M6 9h1M14 9h1M5 10h1M13 10h1M4 11h1M12 11h1M3 12h1M11 12h1M3 13h1M10 13h1M2 14h1M9 14h1M2 15h1M8 15h1M2 16h1M6 16h2M1 17h1M3 17h3M2 18h1" />
<path stroke="#000000" d="M15 2h2M14 3h1M17 3h1M13 4h1M17 4h1M12 5h1M14 5h1M16 5h1M11 6h1M15 6h1M9 7h2M13 7h1M15 7h1M8 8h1M12 8h1M14 8h1M7 9h1M11 9h1M13 9h1M6 10h1M10 10h1M12 10h1M5 11h1M9 11h1M11 11h1M4 12h1M9 12h2M9 13h1M3 14h1M6 14h1M8 14h1M3 15h1M6 15h2M3 16h3M2 17h1" />
<path stroke="#ffffff" d="M15 3h1M9 8h1M8 9h1M7 11h1M6 12h1M4 14h1" />
<path stroke="#acacac" d="M16 3h1M14 4h2M11 5h1M10 6h1M13 6h1M12 7h1M11 8h1M10 9h1M9 10h1M6 11h1M5 12h1M7 12h2M6 13h2M5 14h1M4 15h1" />
<path stroke="#575757" d="M11 4h2M16 4h1M10 5h1M13 5h1M15 5h1M9 6h1M12 6h1M14 6h1M11 7h1M14 7h1M10 8h1M13 8h1M9 9h1M12 9h1M7 10h2M11 10h1M8 11h1M10 11h1M4 13h2M8 13h1M7 14h1M5 15h1" />
</svg>
